<svg xmlns="http://www.w3.org/2000/svg" width="16" height="10" viewBox="0 0 16 10">
    <g fill="none" fill-rule="evenodd">
        <g fill="#D5D5D5">
            <g>
                <g>
                    <g>
                        <g>
                            <path d="M3.579 11.797c0-.272.102-.543.305-.713l6.007-5.769L3.884-.488c-.407-.407-.407-1.052 0-1.425.374-.373.984-.407 1.392-.034l6.787 6.516c.407.373.407 1.018.034 1.425l-.034.034-6.787 6.516c-.17.136-.408.237-.679.271-.577 0-1.018-.475-1.018-1.018z" transform="translate(-579 -420) translate(320 145) translate(46 127) translate(30 144) translate(183 4) scale(1 -1) rotate(90 13.278 0)"/>
                        </g>
                    </g>
                </g>
            </g>
        </g>
    </g>
</svg>
