<svg xmlns="http://www.w3.org/2000/svg" width="50" height="50" viewBox="0 0 50 50">
    <g fill="none" fill-rule="evenodd">
        <g fill-rule="nonzero">
            <g>
                <g>
                    <g transform="translate(-53 -318) translate(33 200) translate(20 93) translate(0 25)">
                        <circle cx="25" cy="25" r="25" fill="#F1F3F7"/>
                        <g fill="#513529">
                            <path d="M8.404 4.91L7.871 3.8l.984-.472.76 1.582h.956l.937-1.88.975.488-.696 1.391h1.478L14.5 1.905l-.792.397c-.409.206-.906.088-1.18-.279l-.624-.829-.829.829c-.193.194-.462.295-.736.276-.273-.02-.525-.157-.69-.377l-.546-.728-.987.989c-.243.243-.598.335-.928.24l-1.322-.377 1.55 2.863h.99zM13.635 15.817h3.818V8.18h-3.818v7.636zm2.727-6.543h.546v1.092h-.546V9.274zm0 2.185h.546v1.093h-.546v-1.093zm0 2.185h.546v1.093h-.546v-1.093zm-1.634-4.37h.546v1.092h-.546V9.274zm0 2.185h.546v1.093h-.546v-1.093zm0 2.185h.546v1.093h-.546v-1.093z" transform="translate(9 9)"/>
                            <path d="M7.094 15.817h5.454V7.639c0-.302.245-.547.546-.547h.946c-.168-.385-.378-.752-.624-1.092H7.233c-.518.32-2.325 3.044-2.325 5.963v1.672c.003 1.206.98 2.182 2.186 2.182zm1.093-3.819h2.185v-.546h-1.64c-.3 0-.545-.245-.545-.546v-1.64c0-.301.244-.546.546-.546h.546v-.546h1.093v.546h.546c.302 0 .547.245.547.547v.546H9.279v.546h1.64c.301 0 .546.245.546.547v1.639c0 .302-.245.546-.547.546h-.546v.546H9.279v-.546h-.546c-.302 0-.546-.244-.546-.546v-.547zM25.089 14.181L26.181 14.181 26.181 15.82 25.089 15.82zM21.816 12.544h-.546c-.22-.001-.418-.134-.502-.338-.084-.203-.038-.437.117-.593l2.022-2.022V1.636h-4.363v14.18h3.272v-3.272zm-.545-9.815h.546V3.82h-.546V2.73zm0 2.185h.546v1.093h-.546V4.914zm0 2.185h.546v1.093h-.546V7.099zm0 2.186h.546v1.092h-.546V9.285zm-1.093 1.092h-.546V9.285h.546v1.092zm0-2.185h-.546V7.099h.546v1.093zm0-2.185h-.546V4.914h.546v1.093zm0-2.186h-.546V2.73h.546V3.82zM28.681 11.454L25.637 8.41 22.593 11.454z" transform="translate(9 9)"/>
                            <path d="M28.361 15.817v-3.273h-5.454v3.273H24v-2.18c0-.302.245-.547.546-.547h2.186c.301 0 .546.245.546.547v2.185l1.083-.005zM27.758 19.875c-.058.116-.154.207-.273.258l-3.525 1.513c-.185 1.345-1.332 2.348-2.69 2.352h-8.726v-1.093h8.727c.867-.05 1.544-.768 1.544-1.636 0-.869-.677-1.586-1.544-1.637h-7.855c-2.844-.002-5.62.862-7.961 2.475v7.345h12.332c6.556-.003 12.166-4.71 13.306-11.167l.234-1.34c.082-.47-.193-.93-.646-1.08-.453-.149-.947.057-1.16.483l-.008.014H4.908v1.093h24.063l-1.213 2.42zM1.091 31.634h3.273v-12H1.091v12zm1.093-10.36h1.092v1.639H2.184v-1.64zM27.816 1.091L28.908 1.091 28.908 2.184 27.816 2.184z" transform="translate(9 9)"/>
                            <path d="M28.906 0L29.999 0 29.999 1.093 28.906 1.093z" transform="translate(9 9)"/>
                            <path d="M29.997 1.091L31.09 1.091 31.09 2.184 29.997 2.184z" transform="translate(9 9)"/>
                            <path d="M28.906 2.181L29.999 2.181 29.999 3.274 28.906 3.274zM31.633 3.818L32.726 3.818 32.726 4.911 31.633 4.911zM27.816 5.454L28.908 5.454 28.908 6.547 27.816 6.547zM0 4.908L1.093 4.908 1.093 6.001 0 6.001z" transform="translate(9 9)"/>
                            <path d="M1.091 3.818L2.184 3.818 2.184 4.911 1.091 4.911z" transform="translate(9 9)"/>
                            <path d="M2.181 4.908L3.274 4.908 3.274 6.001 2.181 6.001z" transform="translate(9 9)"/>
                            <path d="M1.091 6L2.184 6 2.184 7.092 1.091 7.092zM0 9.272L1.093 9.272 1.093 10.365 0 10.365zM2.181 0L3.274 0 3.274 1.093 2.181 1.093z" transform="translate(9 9)"/>
                        </g>
                    </g>
                </g>
            </g>
        </g>
    </g>
</svg>
