<svg xmlns="http://www.w3.org/2000/svg" id="calendar-2-fill" width="33.092" height="33.092" viewBox="0 0 33.092 33.092">
    <path id="Path_5654" fill="none" d="M0 0h33.092v33.092H0z" data-name="Path 5654"/>
    <path id="Path_5655" fill="#901235" d="M22.683 3.758H28.2a1.379 1.379 0 0 1 1.379 1.379V27.2a1.379 1.379 0 0 1-1.379 1.377H3.379A1.379 1.379 0 0 1 2 27.2V5.137a1.379 1.379 0 0 1 1.379-1.379h5.515V1h2.758v2.758h8.273V1h2.758zM4.758 12.031v13.788h22.061V12.031zm2.758 2.758h2.758v2.758H7.515zm6.894 0h2.758v2.758H14.41zm6.894 0h2.758v2.758H21.3z" data-name="Path 5655" transform="translate(.758 .379)"/>
</svg>
