<svg xmlns="http://www.w3.org/2000/svg" id="calendar" width="22.104" height="22.104" viewBox="0 0 22.104 22.104">
    <defs>
        <style>
            .cls-1{fill:silver}
        </style>
    </defs>
    <g id="Group_2010" data-name="Group 2010">
        <g id="Group_2009" data-name="Group 2009">
            <path id="Path_5535" d="M18.42 2.763a.921.921 0 0 0-.921-.921h-2.763V0h-1.842v1.842h-2.763V0H8.289v1.842H5.526V0H3.684v1.842H.921A.921.921 0 0 0 0 2.763v1.842h18.42z" class="cls-1" data-name="Path 5535"/>
            <path id="Path_5536" d="M14.72 132.877a6.437 6.437 0 0 1 3.7 0V128H0v11.973a.921.921 0 0 0 .921.921H10.4a6.439 6.439 0 0 1 4.32-8.017zm-1.826-3.035h1.842v1.842h-1.842zm-4.605 0h1.842v1.842H8.289zm-2.763 9.21H3.684v-1.842h1.842zm0-3.684H3.684v-1.842h1.842zm0-3.684H3.684v-1.842h1.842zm2.763 1.842h1.842v1.842H8.289z" class="cls-1" data-name="Path 5536" transform="translate(0 -122.474)"/>
            <path id="Path_5537" d="M261.526 256a5.526 5.526 0 1 0 5.526 5.526 5.526 5.526 0 0 0-5.526-5.526zm.651 6.177a.928.928 0 0 1-.942.223l-2.763-.921.583-1.75 2.222.737 2.361-2.361 1.3 1.3z" class="cls-1" data-name="Path 5537" transform="translate(-244.948 -244.948)"/>
        </g>
    </g>
</svg>
