<svg xmlns="http://www.w3.org/2000/svg" width="50" height="50" viewBox="0 0 50 50">
    <g fill="none" fill-rule="evenodd">
        <g fill-rule="nonzero">
            <g>
                <g>
                    <g transform="translate(-83 -324) translate(58 200) translate(25 99) translate(0 25)">
                        <circle cx="25" cy="25" r="25" fill="#F1F3F7"/>
                        <g fill="#513529">
                            <path d="M0 0v17.741h30.813V0H0zm28.244 11.059c-2.095 0-3.793 1.784-3.793 3.986H6.363c0-2.202-1.698-3.986-3.793-3.986V6.69c2.095 0 3.793-1.784 3.793-3.986H24.45c0 2.202 1.698 3.986 3.793 3.986v4.368z" transform="translate(8 15)"/>
                            <path d="M15.407 3.22c-2.968 0-5.375 2.53-5.375 5.65 0 3.12 2.406 5.65 5.375 5.65 2.968 0 5.375-2.528 5.376-5.648 0-3.12-2.407-5.65-5.376-5.651zm2.65 3.405c-.674-.58-1.57-.79-2.416-.567-.846.223-1.541.853-1.876 1.7h3.587l-.188.85h-3.596c-.007.087-.011.175-.011.265 0 .09 0 .176.011.264h3.467l-.187.85H13.77c.335.845 1.03 1.475 1.876 1.698.845.223 1.741.013 2.416-.567v1.143c-.988.6-2.184.693-3.245.25-1.061-.442-1.871-1.371-2.199-2.52h-.94l.189-.85h.605c-.006-.088-.009-.176-.009-.265 0-.088 0-.176.009-.264h-.81v-.05l.18-.8h.773c.328-1.15 1.138-2.078 2.199-2.521 1.061-.443 2.257-.35 3.245.25v.228l-.002.906z" transform="translate(8 15)"/>
                            <g>
                                <path d="M31.808 18.652L0 18.652 0 16.542 29.799 16.542 29.799 0 31.808 0z" transform="translate(8 15) translate(2.495 2.711)"/>
                            </g>
                        </g>
                    </g>
                </g>
            </g>
        </g>
    </g>
</svg>
