<svg xmlns="http://www.w3.org/2000/svg" width="12.463" height="22.008" viewBox="0 0 12.463 22.008">
  <defs>
    <style>
      .cls-1 {
        fill: #fff;
      }
    </style>
  </defs>
  <g id="cell-phone" transform="translate(-5.951)">
    <path id="Path_629" data-name="Path 629" class="cls-1" d="M16.812,0H7.553a1.6,1.6,0,0,0-1.6,1.6v18.8a1.6,1.6,0,0,0,1.6,1.6h9.26a1.6,1.6,0,0,0,1.6-1.6V1.6A1.6,1.6,0,0,0,16.812,0ZM9.9.974h4.571c.115,0,.209.172.209.386s-.094.387-.209.387H9.9c-.116,0-.209-.173-.209-.387S9.781.974,9.9.974Zm2.286,19.452A1.023,1.023,0,1,1,13.2,19.4,1.024,1.024,0,0,1,12.183,20.425Zm5.031-3.5H7.152V2.705H17.214V16.922Z"/>
  </g>
</svg>
