<svg xmlns="http://www.w3.org/2000/svg" width="52" height="52" viewBox="0 0 52 52">
    <g fill="none" fill-rule="evenodd">
        <g fill-rule="nonzero">
            <g>
                <g>
                    <g transform="translate(-591 -324) translate(58 200) translate(533 99) translate(0 25)">
                        <circle cx="26" cy="26" r="26" fill="#F1F3F7"/>
                        <g fill="#513529">
                            <path d="M16.976 15.369v1.184c-.09.578-.588 1.005-1.173 1.005-.585 0-1.083-.427-1.173-1.005v-1.184H4.386l-4.387-2.548v12.534c0 .674.547 1.221 1.221 1.221h29.164c.675 0 1.221-.546 1.222-1.221V12.821l-4.387 2.548H16.976z" transform="translate(9.846 11.03)"/>
                            <path d="M30.385 4.803h-6.83l-.369-1.552C22.738 1.342 21.032-.005 19.071 0h-6.535C10.575-.006 8.869 1.342 8.42 3.251l-.369 1.552h-6.83C.547 4.803 0 5.35 0 6.024v5l4.805 2.79h9v-2.632h4v2.632h9l4.806-2.79v-5c0-.325-.13-.636-.36-.865-.23-.229-.541-.357-.866-.356zm-20.076-1.1c.243-1.033 1.165-1.762 2.226-1.759h6.535c1.06-.003 1.984.726 2.226 1.759l.262 1.1H10.047l.262-1.1z" transform="translate(9.846 11.03)"/>
                        </g>
                    </g>
                </g>
            </g>
        </g>
    </g>
</svg>
