<?xml version="1.0" encoding="UTF-8"?>
<svg width="19px" height="18px" viewBox="0 0 19 18" version="1.1" xmlns="http://www.w3.org/2000/svg" xmlns:xlink="http://www.w3.org/1999/xlink">
    <title>DB31AA40-BB91-4393-AEB4-7DAA244C126C</title>
    <g id="Page-1" stroke="none" stroke-width="1" fill="none" fill-rule="evenodd">
        <g id="Cash-popup-&quot;Account-Details&quot;" transform="translate(-1091.000000, -866.000000)" fill="#8D2232" fill-rule="nonzero">
            <g id="modal" transform="translate(172.000000, 160.000000)">
                <g id="002-excel" transform="translate(919.000000, 706.000000)">
                    <path d="M18.1956522,2.40070068 L10.5652174,2.40070068 L10.5652174,0.600781522 C10.5652174,0.421989553 10.4877391,0.252797153 10.3527391,0.138802273 C10.218913,0.0248073933 10.0393043,-0.0243903968 9.87026087,0.0116079862 L0.478956522,1.81152714 C0.20073913,1.86432477 0,2.11151366 0,2.40070068 L0,15.6001078 C0,15.8880949 0.20073913,16.1364837 0.478956522,16.1892813 L9.87026087,17.9892005 C9.90547826,17.9964002 9.94186957,18 9.97826087,18 C10.1144348,18 10.247087,17.9520022 10.3527391,17.8620062 C10.4877391,17.7480113 10.5652174,17.577619 10.5652174,17.4000269 L10.5652174,15.6001078 L18.1956522,15.6001078 C18.5196522,15.6001078 18.7826087,15.3313199 18.7826087,15.0001347 L18.7826087,3.00067373 C18.7826087,2.6694886 18.5196522,2.40070068 18.1956522,2.40070068 Z M8.07182609,11.0055142 C8.28547826,11.253903 8.26082609,11.633086 8.01665217,11.8514762 C7.90513043,11.9510717 7.76778261,12.0002695 7.63043478,12.0002695 C7.46726087,12.0002695 7.30526087,11.9306726 7.18904348,11.7950787 L5.48217391,9.80196823 L3.98543478,11.7698798 C3.86921739,11.921073 3.69547826,12.0002695 3.52173913,12.0002695 C3.39613043,12.0002695 3.26934783,11.9594713 3.16134783,11.8742751 C2.90543478,11.6702843 2.85965217,11.2935012 3.05804348,11.031913 L4.69447826,8.88160957 L3.08034783,6.9952943 C2.86669565,6.74690546 2.89134783,6.36772249 3.13552174,6.1493323 C3.37852174,5.93094211 3.74830435,5.95494103 3.96430435,6.20572976 L5.42934783,7.91685291 L7.16791304,5.63215553 C7.36747826,5.37176722 7.73608696,5.32376938 7.992,5.52776022 C8.24791304,5.73055111 8.29369565,6.10733418 8.09413043,6.37012238 L6.21586957,8.83721157 L8.07182609,11.0055142 Z M17.6086957,14.4001617 L10.5652174,14.4001617 L10.5652174,13.2002156 L12.326087,13.2002156 C12.650087,13.2002156 12.9130435,12.9314277 12.9130435,12.6002425 C12.9130435,12.2690574 12.650087,12.0002695 12.326087,12.0002695 L10.5652174,12.0002695 L10.5652174,10.8003234 L12.326087,10.8003234 C12.650087,10.8003234 12.9130435,10.5315355 12.9130435,10.2003503 C12.9130435,9.86916521 12.650087,9.60037729 12.326087,9.60037729 L10.5652174,9.60037729 L10.5652174,8.40043118 L12.326087,8.40043118 C12.650087,8.40043118 12.9130435,8.13164326 12.9130435,7.80045813 C12.9130435,7.46927301 12.650087,7.20048508 12.326087,7.20048508 L10.5652174,7.20048508 L10.5652174,6.00053898 L12.326087,6.00053898 C12.650087,6.00053898 12.9130435,5.73175105 12.9130435,5.40056593 C12.9130435,5.06938081 12.650087,4.80059288 12.326087,4.80059288 L10.5652174,4.80059288 L10.5652174,3.60064678 L17.6086957,3.60064678 L17.6086957,14.4001617 Z" id="Shape"></path>
                    <path d="M15.8478261,5.47826087 L14.673913,5.47826087 C14.349913,5.47826087 14.0869565,5.65356522 14.0869565,5.86956522 C14.0869565,6.08556522 14.349913,6.26086957 14.673913,6.26086957 L15.8478261,6.26086957 C16.1718261,6.26086957 16.4347826,6.08556522 16.4347826,5.86956522 C16.4347826,5.65356522 16.1718261,5.47826087 15.8478261,5.47826087 Z" id="Path"></path>
                    <path d="M15.8478261,7.82608696 L14.673913,7.82608696 C14.349913,7.82608696 14.0869565,8.0013913 14.0869565,8.2173913 C14.0869565,8.4333913 14.349913,8.60869565 14.673913,8.60869565 L15.8478261,8.60869565 C16.1718261,8.60869565 16.4347826,8.4333913 16.4347826,8.2173913 C16.4347826,8.0013913 16.1718261,7.82608696 15.8478261,7.82608696 Z" id="Path"></path>
                    <path d="M15.8478261,9.39130435 L14.673913,9.39130435 C14.349913,9.39130435 14.0869565,9.5666087 14.0869565,9.7826087 C14.0869565,9.9986087 14.349913,10.173913 14.673913,10.173913 L15.8478261,10.173913 C16.1718261,10.173913 16.4347826,9.9986087 16.4347826,9.7826087 C16.4347826,9.5666087 16.1718261,9.39130435 15.8478261,9.39130435 Z" id="Path"></path>
                    <path d="M15.8478261,11.7391304 L14.673913,11.7391304 C14.349913,11.7391304 14.0869565,11.9144348 14.0869565,12.1304348 C14.0869565,12.3464348 14.349913,12.5217391 14.673913,12.5217391 L15.8478261,12.5217391 C16.1718261,12.5217391 16.4347826,12.3464348 16.4347826,12.1304348 C16.4347826,11.9144348 16.1718261,11.7391304 15.8478261,11.7391304 Z" id="Path"></path>
                </g>
            </g>
        </g>
    </g>
</svg>