<svg xmlns="http://www.w3.org/2000/svg" width="52" height="52" viewBox="0 0 52 52">
    <g fill="none" fill-rule="evenodd">
        <g fill-rule="nonzero">
            <g>
                <g>
                    <g transform="translate(-83 -569) translate(58 445) translate(25 99) translate(0 25)">
                        <circle cx="26" cy="26" r="26" fill="#F1F3F7"/>
                        <g fill="#513529">
                            <g>
                                <path d="M18.102 33.223H2.981c-1.01 0-1.953-.512-2.502-1.36-.549-.849-.63-1.918-.216-2.84.84-1.871 2.13-4.624 3.5-7.117.879-1.718 1.952-3.328 3.2-4.8-1.248-1.472-2.321-3.082-3.2-4.8C2.39 9.813 1.101 7.06.263 5.189c-.414-.922-.333-1.991.216-2.84C1.03 1.502 1.97.99 2.981.99h15.121c1.01 0 1.953.512 2.502 1.36.549.849.63 1.918.216 2.84-.84 1.871-2.129 4.624-3.5 7.117-.879 1.718-1.952 3.328-3.2 4.8 1.248 1.472 2.321 3.082 3.2 4.8 1.373 2.493 2.663 5.246 3.5 7.117.415.922.334 1.99-.215 2.84-.55.848-1.491 1.36-2.502 1.36h-.001zM2.981 2.423c-.528 0-1.02.267-1.306.71-.286.443-.33 1-.113 1.482.829 1.847 2.1 4.562 3.451 7.013.883 1.815 2.043 3.483 3.437 4.943.157.135.247.332.247.54 0 .207-.09.404-.247.539-1.394 1.46-2.554 3.128-3.437 4.943-1.35 2.451-2.622 5.167-3.451 7.013-.216.481-.173 1.04.113 1.482.287.443.778.71 1.306.71h15.121c.528 0 1.02-.267 1.306-.71.286-.443.33-1 .113-1.482-.83-1.847-2.1-4.562-3.451-7.013-.883-1.815-2.042-3.483-3.436-4.943-.157-.135-.248-.332-.248-.54 0-.207.09-.404.248-.539 1.394-1.46 2.553-3.128 3.436-4.943 1.35-2.451 2.622-5.166 3.451-7.013.216-.481.173-1.039-.114-1.482-.286-.442-.778-.71-1.305-.71H2.981z" transform="translate(15.912 8.394)"/>
                            </g>
                            <path d="M10.471 16.149c-.255-.01-.503-.084-.722-.214l-.022-.01-.007-.005c-.048-.033-.098-.061-.151-.085-.5-.216-2-1.447-5.3-8.154H16.81c-3.294 6.707-4.8 7.938-5.3 8.154-.053.024-.103.052-.15.085-.278.136-.58.214-.889.229zM11.275 17.589c-.027-.401-.366-.71-.768-.7-.404.022-.715.364-.7.768.028.402.367.71.769.7.404-.022.715-.364.699-.768zM11.275 19.575c-.028-.401-.366-.71-.768-.7-.404.022-.715.364-.7.768.028.402.367.71.769.7.404-.022.715-.364.699-.768zM11.275 21.561c-.027-.401-.366-.71-.768-.7-.404.022-.715.364-.7.768.028.402.367.71.769.7.404-.022.715-.364.699-.768z" transform="translate(15.912 8.394)"/>
                            <g>
                                <path d="M5.711 0C2.557 0-.001 1.023-.001 2.285c0 1.262 2.557 2.285 5.712 2.285s5.712-1.023 5.712-2.285C11.423 1.023 8.866 0 5.711 0zm2.151 3.114c-.145.102-.309.175-.481.217-.23.06-.464.1-.7.121-.067.007-.137.012-.211.017v.273H5.397V3.48c-.287-.012-.571-.035-.853-.07-.393-.046-.781-.121-1.162-.226l.506-.4c.088.031.179.057.27.078.133.032.287.065.461.1.174.035.37.062.589.081.22.022.442.033.664.033.63 0 .946-.08.947-.242 0-.051-.036-.094-.108-.13-.098-.044-.201-.075-.307-.093-.133-.027-.294-.051-.482-.073l-.631-.073c-.282-.031-.527-.065-.735-.1-.176-.029-.35-.072-.519-.13-.114-.036-.22-.095-.311-.173-.065-.06-.102-.145-.1-.234.003-.126.064-.244.166-.319.137-.107.293-.186.46-.233.224-.067.453-.115.685-.141.148-.018.302-.031.463-.039V.824h1.073v.29c.155.013.305.03.448.051.308.044.613.106.914.185l-.507.372c-.07-.025-.14-.046-.212-.063-.1-.027-.227-.052-.374-.078-.147-.026-.306-.047-.477-.065-.174-.018-.348-.026-.523-.026-.237-.009-.475.015-.706.07-.155.047-.232.112-.232.2.003.054.037.1.087.121.08.04.165.068.253.084.11.025.25.047.419.067.169.02.364.041.585.063.288.031.55.065.785.1.203.028.404.072.6.133.137.04.265.104.378.191.084.066.134.167.133.274-.005.13-.073.25-.182.321z" transform="translate(15.912 8.394) translate(4.829 23.387)"/>
                                <path d="M11.424 2.768v2.285c-.05.483-.336.91-.764 1.142-3.124 1.525-6.776 1.525-9.9 0-.427-.231-.713-.659-.764-1.142V2.768c.05.484.336.912.764 1.143 3.124 1.524 6.776 1.524 9.9 0 .428-.231.714-.66.764-1.143z" transform="translate(15.912 8.394) translate(4.829 23.387)"/>
                            </g>
                        </g>
                    </g>
                </g>
            </g>
        </g>
    </g>
</svg>
