<svg xmlns="http://www.w3.org/2000/svg" width="52" height="52" viewBox="0 0 52 52">
    <g fill="none" fill-rule="evenodd">
        <g fill-rule="nonzero">
            <g>
                <g>
                    <g transform="translate(-83 -687) translate(58 445) translate(25 217) translate(0 25)">
                        <circle cx="26" cy="26" r="26" fill="#F1F3F7"/>
                        <g fill="#513529">
                            <g>
                                <path d="M0 12.362l6.581 7.536L20.337 7.885 13.756.35 0 12.362zm16.709-6.315c-.935.816-1.03 2.236-.215 3.171L8.419 16.27c-.392-.45-.947-.724-1.541-.764-.595-.04-1.182.157-1.631.549L3.627 14.2c.935-.816 1.03-2.236.215-3.171l8.075-7.052c.816.935 2.236 1.03 3.171.215l1.621 1.855z" transform="translate(13 8) translate(1.994)"/>
                                <path d="M8.205 7.876c-1.241 1.084-1.368 2.969-.285 4.21 1.084 1.241 2.97 1.369 4.21.285 1.242-1.084 1.37-2.969.286-4.21-.52-.596-1.257-.961-2.046-1.015-.79-.053-1.569.21-2.165.73zm3.763 2.319c.036.144.036.294 0 .438-.04.15-.109.29-.2.414-.025.035-.051.07-.079.1l.27.309-.487.425-.259-.3c-.143.101-.297.188-.457.259-.238.106-.492.174-.751.2l-.162-.649c.067 0 .134-.006.2-.019.101-.018.202-.042.3-.073.12-.037.236-.084.348-.141.12-.061.233-.137.334-.226.287-.25.35-.468.189-.651-.046-.053-.108-.088-.177-.1-.077-.01-.156-.005-.231.017-.1.027-.197.064-.291.108l-.359.167c-.14.07-.285.128-.434.176-.117.04-.24.06-.364.059-.108 0-.215-.025-.312-.072-.107-.056-.202-.132-.279-.225-.111-.123-.194-.27-.241-.428-.042-.145-.049-.298-.021-.446.03-.153.088-.3.171-.432.05-.08.107-.157.171-.228l-.27-.309.487-.426.288.33c.081-.047.166-.087.254-.12.193-.075.395-.126.6-.153l.139.623c-.053 0-.107.004-.159.013-.084.013-.166.032-.247.059-.097.031-.19.07-.281.115-.095.048-.184.107-.264.177-.12.09-.208.216-.252.359-.024.113.009.23.089.314.041.05.097.085.16.1.066.015.134.015.2 0 .088-.021.174-.051.256-.091.1-.044.206-.1.328-.16.161-.079.313-.145.455-.2.128-.05.263-.079.4-.086.124-.005.247.018.361.067.128.06.242.148.332.258.119.127.203.281.246.449l-.001-.001z" transform="translate(13 8) translate(1.994)"/>
                                <g>
                                    <path d="M15.078 8.024L0.793 20.499 0 19.591 13.377 7.909 7.163 0.794 8.071 0.001z" transform="translate(13 8) translate(1.994) translate(7.877)"/>
                                </g>
                            </g>
                            <g>
                                <path d="M20.687 14.113c-1.637-.002-2.964-1.329-2.966-2.966v-1.076c.002-1.637 1.329-2.964 2.966-2.966h4.33v-4.9c-.055-.72-.68-1.26-1.4-1.21H1.397c-.72-.049-1.344.491-1.4 1.21v16.8c.056.719.68 1.258 1.4 1.209h22.22c.72.05 1.344-.49 1.4-1.209v-4.9l-4.33.008z" transform="translate(13 8) translate(0 12.958)"/>
                                <path d="M20.683 8.372c-.939 0-1.7.761-1.7 1.7v1.076c0 .939.761 1.7 1.7 1.7h5.313V8.374l-5.313-.002zm.761 3.42c-.653 0-1.183-.53-1.183-1.183s.53-1.183 1.183-1.183 1.183.53 1.183 1.183c0 .651-.527 1.18-1.178 1.183h-.005z" transform="translate(13 8) translate(0 12.958)"/>
                            </g>
                        </g>
                    </g>
                </g>
            </g>
        </g>
    </g>
</svg>
