<svg xmlns="http://www.w3.org/2000/svg" width="21" height="22" viewBox="0 0 21 22">
    <defs>
        <filter id="nmvzk3y1ka">
            <feColorMatrix in="SourceGraphic" values="0 0 0 0 1.000000 0 0 0 0 1.000000 0 0 0 0 1.000000 0 0 0 1.000000 0"/>
        </filter>
    </defs>
    <g fill="none" fill-rule="evenodd">
        <g>
            <g>
                <g>
                    <g filter="url(#nmvzk3y1ka)" transform="translate(-970 -94) translate(0 29.203) translate(946 64.797) translate(0 1)">
                        <g>
                            <path fill="#513529" fill-rule="nonzero" d="M20.176 19.967L0 19.967 1.783 17.634 18.393 17.634zM18.466 8.356V7.253H1.71v1.103h.447v6.957h-.064c-.21 0-.4.238-.381.474v.008H1.71v.848h16.756v-.848l-.001-.05c-.02-.254-.195-.432-.419-.432h-.027V8.356h.447zm-5.895 6.957c-.21 0-.4.238-.382.474v.008h-.708v-.05c-.02-.254-.195-.432-.42-.432h-.027V8.356h1.6v6.957h-.063zm-4.583.432c-.02-.254-.195-.432-.42-.432h-.026V8.356h1.6v6.957h-.064c-.21 0-.4.238-.382.474l.001.008h-.709v-.05zM4.049 8.356h1.6v6.957h-.063c-.21 0-.4.238-.382.474v.008h-.708l-.001-.05c-.02-.254-.195-.432-.419-.432H4.05V8.356zm12.078 6.957h-.064c-.21 0-.4.238-.382.474l.001.008h-.709v-.05c-.02-.254-.195-.432-.42-.432h-.026V8.356h1.6v6.957zM10.088 0L.513 5.623v.64h19.15v-.64L10.088 0zm0 5.123c-.852 0-1.543-.691-1.543-1.544 0-.852.69-1.543 1.543-1.543s1.544.69 1.544 1.543-.691 1.544-1.544 1.544z" transform="translate(24)"/>
                        </g>
                    </g>
                </g>
            </g>
        </g>
    </g>
</svg>
