<?xml version="1.0" encoding="UTF-8"?>
<svg width="52px" height="52px" viewBox="0 0 52 52" version="1.1" xmlns="http://www.w3.org/2000/svg" xmlns:xlink="http://www.w3.org/1999/xlink">
    <title>7B02332B-4F46-482C-AAC4-5DDD513FC43A</title>
    <defs>
        <filter id="filter-1">
            <feColorMatrix in="SourceGraphic" type="matrix" values="0 0 0 0 0.419608 0 0 0 0 0.309804 0 0 0 0 0.266667 0 0 0 1.000000 0"></feColorMatrix>
        </filter>
    </defs>
    <g id="Page-1" stroke="none" stroke-width="1" fill="none" fill-rule="evenodd">
        <g id="Landing-Page" transform="translate(-368.000000, -669.000000)">
            <g id="Contact-Us" transform="translate(368.000000, 644.000000)">
                <g id="INVEST-icon" transform="translate(0.000000, 25.000000)">
                    <circle id="Ellipse_138" fill="#F1F3F7" fill-rule="nonzero" cx="26" cy="26" r="26"></circle>
                    <g filter="url(#filter-1)" id="contact">
                        <g transform="translate(14.000000, 14.000000)">
                            <path d="M23.348944,0.00303363734 L14.397857,0.862816246 C14.2863227,0.873346702 14.1909102,0.947361123 14.1529798,1.05277499 C14.1150494,1.15818886 14.1414289,1.27602692 14.2206831,1.35520755 L15.575031,2.71064233 C15.8007187,2.93679494 15.8007187,3.30296799 15.575031,3.52912059 L11.2532918,7.85085972 C11.027604,8.07701233 11.027604,8.44318538 11.2532918,8.66933799 L15.3163353,12.7312945 C15.5424879,12.9569823 15.908661,12.9569823 16.1348136,12.7312945 L20.4565527,8.41064233 C20.6827053,8.18495455 21.0488784,8.18495455 21.275031,8.41064233 L22.6293788,9.76499016 C22.7084789,9.84493993 22.8267633,9.87176611 22.9326146,9.83376222 C23.038466,9.79575833 23.1126746,9.69982124 23.122857,9.58781625 L23.9815527,0.637816246 C23.998982,0.465093245 23.9380381,0.293657041 23.815495,0.170692818 C23.6929519,0.0477285944 23.5217258,-0.0138030088 23.348944,0.00303363734 Z" id="Path_583" fill="#FFFFFF" fill-rule="nonzero" transform="translate(17.534255, 6.450430) rotate(180.000000) translate(-17.534255, -6.450430) "></path>
                            <path d="M14.926087,18.4880435 C14.6804166,18.7339656 14.347065,18.8721444 13.9994565,18.8721444 C13.6518481,18.8721444 13.3184964,18.7339656 13.0728261,18.4880435 L5.49565217,10.9108696 C5.25005932,10.666128 5.11201491,10.3336758 5.11201491,9.98695652 C5.11201491,9.6402372 5.25005932,9.30778505 5.49565217,9.06304348 L6.25,8.30978261 L1.82065217,3.87717391 C-2.2826087,8.52934783 1.23586957,14.0076087 5.60543478,18.3782609 C10,22.7695652 15.4673913,26.2554348 20.1086957,22.1630435 L15.6793478,17.7347826 L14.926087,18.4880435 Z" id="Path_584" fill="#FFFFFF" fill-rule="nonzero"></path>
                            <path d="M4.81086957,1.52065217 L8.59021739,5.30108696 C8.77376178,5.48484391 8.77376178,5.7825474 8.59021739,5.96630435 L7.25434783,7.30108696 L7.24456522,7.31086957 L2.8,2.86630435 L4.14673913,1.51956522 C4.2348461,1.43115179 4.35452887,1.3814558 4.47934783,1.3814558 C4.60416678,1.3814558 4.72384956,1.43115179 4.81195652,1.51956522 L4.81086957,1.52065217 Z" id="Path_585" fill="#FFFFFF" fill-rule="nonzero"></path>
                            <path d="M22.4663043,19.8347826 C21.9913043,20.3119565 21.3793478,20.9217391 21.1206522,21.1826087 L16.6771739,16.7391304 L18.0228261,15.3934783 C18.206583,15.2099339 18.5042865,15.2099339 18.6880435,15.3934783 L22.4663043,19.1706522 C22.6491261,19.3542836 22.6491261,19.6511512 22.4663043,19.8347826 L22.4663043,19.8347826 Z" id="Path_586" fill="#FFFFFF" fill-rule="nonzero"></path>
                        </g>
                    </g>
                </g>
            </g>
        </g>
    </g>
</svg>