<svg xmlns="http://www.w3.org/2000/svg" width="52" height="52" viewBox="0 0 52 52">
    <g fill="none" fill-rule="evenodd">
        <g fill-rule="nonzero">
            <g>
                <g>
                    <g transform="translate(-336 -324) translate(58 200) translate(278 99) translate(0 25)">
                        <circle cx="26" cy="26" r="26" fill="#F1F3F7"/>
                        <g fill="#513529" transform="translate(15 10)">
                            <path d="M16.704 5.037v2.849c-2.005.643-3.765 1.885-5.042 3.56-1.093.185-2.2.276-3.309.273-3.091 0-5.79-.672-7.234-1.67C.493 9.711.075 9.086.001 8.379V5.038c.074.707.492 1.333 1.118 1.671 1.444 1 4.143 1.67 7.234 1.67s5.79-.672 7.234-1.67c.626-.339 1.044-.964 1.117-1.672zM10.435 13.517c-.478 1.079-.765 2.232-.849 3.409-.4.024-.811.036-1.234.036-3.091 0-5.79-.672-7.234-1.67C.492 14.954.074 14.328 0 13.621V10.28c.074.707.492 1.332 1.118 1.67 1.444 1 4.143 1.67 7.234 1.67.696.001 1.39-.033 2.083-.103zM10.554 22.089c-.73.08-1.465.119-2.2.118-3.091 0-5.79-.672-7.234-1.671-.626-.338-1.044-.964-1.118-1.671v-3.34c.074.707.492 1.333 1.118 1.671 1.444 1 4.143 1.67 7.234 1.67.432 0 .856-.013 1.271-.039.125 1.132.44 2.234.929 3.262z"/>
                            <path d="M14.417 26.406c-1.936.733-3.995 1.088-6.065 1.045-3.091 0-5.79-.672-7.234-1.671C.492 25.442.074 24.817 0 24.11v-3.341c.074.708.492 1.333 1.118 1.671 1.444 1 4.143 1.67 7.234 1.67 1.094.003 2.187-.086 3.266-.265.767 1.019 1.716 1.887 2.799 2.561z"/>
                            <path d="M16.704 27.462v1.892c-.074.707-.492 1.333-1.118 1.671-1.444 1-4.143 1.67-7.234 1.67s-5.79-.672-7.234-1.67C.492 30.687.074 30.061 0 29.354v-3.34c.074.707.492 1.332 1.118 1.67 1.444 1 4.143 1.67 7.234 1.67s5.79-.671 7.234-1.67c.187-.128.363-.272.524-.432.195.076.393.146.594.21z"/>
                            <ellipse cx="8.352" cy="3.341" rx="8.352" ry="3.341"/>
                            <path d="M19.832 9.062c-4.756 0-8.611 3.855-8.611 8.611s3.855 8.611 8.611 8.611 8.611-3.855 8.611-8.611-3.855-8.611-8.611-8.611zm3.28 11.773c-.173.332-.426.617-.735.829-.324.218-.684.374-1.064.462-.106.026-.214.048-.323.067v1.039h-1.636v-1c-.441-.047-.876-.136-1.3-.267-.633-.19-1.232-.481-1.773-.861l.772-1.507c.126.114.265.215.412.3.225.137.46.26.7.367.29.13.592.233.9.31.331.085.671.127 1.013.127.963 0 1.444-.308 1.444-.925.005-.179-.053-.354-.164-.494-.13-.15-.29-.271-.469-.355-.236-.114-.482-.207-.734-.278-.287-.085-.608-.178-.963-.279-.382-.101-.757-.23-1.12-.386-.288-.122-.555-.288-.791-.494-.205-.181-.368-.406-.475-.658-.112-.284-.166-.588-.158-.893-.008-.42.078-.835.253-1.216.161-.346.401-.65.7-.886.312-.243.666-.425 1.044-.538.23-.07.467-.121.707-.15v-1.038h1.636v1.106c.233.047.461.112.684.195.49.177.958.412 1.393.7l-.772 1.418c-.1-.09-.208-.17-.323-.241-.182-.115-.372-.216-.57-.3-.236-.101-.48-.184-.728-.247-.261-.067-.53-.1-.8-.1-.378-.028-.755.066-1.077.266-.235.175-.368.455-.354.747-.006.164.04.326.133.462.103.135.235.245.386.323.204.107.418.192.64.253.257.076.555.156.893.241.439.118.839.245 1.2.38.33.119.637.29.912.507.244.196.441.445.576.728.144.33.212.686.2 1.045.014.43-.078.856-.269 1.241z"/>
                        </g>
                    </g>
                </g>
            </g>
        </g>
    </g>
</svg>
