<svg xmlns="http://www.w3.org/2000/svg" width="52" height="52" viewBox="0 0 52 52">
    <g fill="none" fill-rule="evenodd">
        <g fill-rule="nonzero">
            <g>
                <g>
                    <g transform="translate(-413 -318) translate(33 200) translate(380 93) translate(0 25)">
                        <circle cx="26" cy="26" r="26" fill="#F1F3F7"/>
                        <g fill="#513529">
                            <path d="M19.417 14.856c-3.352 0-6.374 2.019-7.656 5.116-1.283 3.096-.574 6.66 1.796 9.03 2.37 2.37 5.935 3.08 9.031 1.797 3.097-1.282 5.116-4.304 5.116-7.656-.005-4.575-3.712-8.282-8.287-8.287zm1.228 8.533c0 .508-.412.92-.92.92h-2.786c-.335.01-.65-.162-.82-.451-.172-.29-.172-.649 0-.938.17-.289.485-.462.82-.452h1.864v-1.88c.015-.498.423-.894.92-.894.498 0 .906.396.921.893l.001 2.802z" transform="translate(12 10)"/>
                            <path d="M9.443 24.908c-.173.031.06.01-4.787.017-.335.01-.65-.163-.82-.452-.172-.29-.172-.649 0-.938.17-.289.485-.462.82-.452H9.29c.003-.616.062-1.23.177-1.836H4.659c-.497-.015-.893-.423-.893-.92 0-.498.396-.906.893-.921h5.343c1.54-3.868 5.286-6.402 9.449-6.392V3.651c-.001-1.347.495-2.647 1.393-3.651H4.603C2.062.003.003 2.062 0 4.603v25.89c.001.375.23.712.579.852.348.14.747.055 1.007-.216l1.178-1.23 1.245 1.245c.36.359.942.359 1.301 0l1.18-1.179 1.19 1.181c.36.357.94.357 1.298 0l1.211-1.2 1.21 1.2c.36.357.94.357 1.298 0l.233-.23c-1.833-1.529-3.067-3.655-3.486-6.004v-.004zM7.627 11.103c.28-.425.85-.544 1.275-.266.476.304 1.06.388 1.604.232.262-.12.448-.364.494-.65.062-.55-.679-.823-1.186-1.023-.775-.218-1.444-.71-1.883-1.384-.303-.59-.338-1.284-.095-1.902.242-.618.739-1.103 1.363-1.33V4.65c-.01-.336.163-.65.452-.822.289-.17.648-.17.937 0 .29.171.462.486.452.822v.076c.385.103.74.295 1.038.561.25.22.362.56.292.887-.071.327-.314.59-.634.686-.32.097-.667.013-.907-.22-.323-.217-.737-.247-1.088-.079-.193.117-.277.353-.202.566.26.467 1.402.566 2.287 1.256.76.577 1.132 1.53.966 2.47-.166.938-.844 1.705-1.755 1.987v.188c.01.335-.162.65-.452.82-.289.172-.648.172-.937 0-.289-.17-.462-.485-.452-.82v-.118c-.463-.096-.906-.275-1.306-.528-.425-.279-.543-.849-.265-1.274l.002-.004zm-2.962 4.614H9.27c.335-.01.65.163.82.452.172.29.172.648 0 .938-.17.289-.485.462-.82.451H4.662c-.497-.015-.892-.422-.892-.92 0-.498.395-.906.892-.92h.003zM24.486 0c-1.798 0-3.255 1.457-3.255 3.255v9.713h5.59c.508 0 .92-.413.92-.921V3.255C27.741 1.457 26.284 0 24.486 0z" transform="translate(12 10)"/>
                        </g>
                    </g>
                </g>
            </g>
        </g>
    </g>
</svg>
