<svg xmlns="http://www.w3.org/2000/svg" width="18.257" height="15.033" viewBox="0 0 18.257 15.033">
  <defs>
    <style>
      .cls-1 {
        fill: #fff;
      }
    </style>
  </defs>
  <path id="message_1_" data-name="message (1)" class="cls-1" d="M14.513.5H3.744A3.748,3.748,0,0,0,0,4.244v5.783a3.684,3.684,0,0,0,2.649,3.541l1.808,1.808a.535.535,0,0,0,.756,0l1.659-1.659h7.64a3.748,3.748,0,0,0,3.744-3.744V4.244A3.748,3.748,0,0,0,14.513.5ZM5.2,8.054a.535.535,0,0,1,.535-.535h6.792a.535.535,0,0,1,0,1.07H5.732A.535.535,0,0,1,5.2,8.054ZM12.525,6.7H5.732a.535.535,0,0,1,0-1.07h6.792a.535.535,0,0,1,0,1.07Zm0,0" transform="translate(0 -0.5)"/>
</svg>
