<svg xmlns="http://www.w3.org/2000/svg" width="24" height="24" viewBox="0 0 24 24">
    <g fill="none" fill-rule="evenodd">
        <g fill="#513529" fill-rule="nonzero">
            <g>
                <g>
                    <g>
                        <path d="M23.787 20.942l-8.724-7.828c2.503-3.517 1.893-8.365-1.404-11.152C10.363-.825 5.481-.62 2.43 2.434c-3.05 3.053-3.252 7.935-.463 11.23 2.789 3.295 7.638 3.901 11.153 1.396l7.9 8.805c.44.44 1.582-.692 1.907-1.017.325-.325 1.33-1.438.861-1.906zm-11.026-8.18c-2.463 2.463-6.458 2.463-8.921 0-2.464-2.464-2.464-6.459 0-8.922 2.463-2.464 6.458-2.464 8.921 0 2.464 2.463 2.464 6.458 0 8.921z" transform="translate(-235 -217) translate(172 160) translate(50 44) translate(13 13)"/>
                        <path d="M11.03 9.038c-.112-.237-.277-.444-.48-.609-.23-.18-.487-.324-.762-.423-.3-.113-.634-.218-1-.317-.282-.07-.531-.138-.746-.201-.185-.052-.364-.122-.534-.212-.127-.065-.237-.157-.323-.27-.078-.113-.117-.248-.111-.386 0-.268.099-.476.296-.624.197-.148.497-.222.9-.222.224 0 .448.028.666.084.208.053.411.122.608.207.165.07.325.153.476.249.096.058.187.125.27.2l.645-1.184c-.363-.242-.753-.44-1.163-.588-.186-.068-.377-.123-.571-.162v-.925H7.833v.867c-.2.024-.397.066-.59.125-.316.094-.612.247-.873.45-.25.198-.452.451-.587.74-.146.319-.218.666-.212 1.016-.006.255.039.509.133.746.09.21.225.398.396.55.197.172.42.311.662.413.304.13.616.238.936.322l.804.233c.211.06.416.138.614.233.15.07.283.17.391.296.093.117.142.263.138.413 0 .515-.402.772-1.206.772-.286 0-.57-.035-.846-.106-.258-.064-.51-.15-.752-.259-.202-.09-.398-.192-.587-.307-.123-.07-.238-.154-.344-.249l-.645 1.26c.452.317.952.56 1.481.719.355.11.719.184 1.088.223v.833H9.2v-.868c.091-.016.18-.034.27-.056.317-.073.618-.204.888-.386.259-.177.47-.415.614-.693.152-.286.228-.63.228-1.031 0-.346-.057-.637-.17-.873z" transform="translate(-235 -217) translate(172 160) translate(50 44) translate(13 13)"/>
                    </g>
                </g>
            </g>
        </g>
    </g>
</svg>
