<svg xmlns="http://www.w3.org/2000/svg" width="20" height="22" viewBox="0 0 20 22">
    <defs>
        <filter id="9i17a2vc9a">
            <feColorMatrix in="SourceGraphic" values="0 0 0 0 1.000000 0 0 0 0 1.000000 0 0 0 0 1.000000 0 0 0 1.000000 0"/>
        </filter>
    </defs>
    <g fill="none" fill-rule="evenodd">
        <g>
            <g>
                <g>
                    <g filter="url(#9i17a2vc9a)" transform="translate(-1172 -94) translate(0 29.203) translate(946 64.797) translate(212 1)">
                        <g fill="#513529" fill-rule="nonzero">
                            <path d="M19.823 17.452l-7.27-6.524c2.086-2.93 1.577-6.97-1.17-9.293-2.747-2.322-6.816-2.152-9.359.393-2.542 2.544-2.71 6.613-.386 9.359 2.324 2.745 6.365 3.25 9.294 1.163l6.585 7.338c.365.365 1.317-.577 1.588-.848.27-.27 1.108-1.198.718-1.588zm-9.189-6.818c-2.053 2.053-5.381 2.053-7.434 0S1.147 5.253 3.2 3.2s5.381-2.053 7.434 0 2.053 5.381 0 7.434z" transform="translate(14)"/>
                            <path d="M9.192 7.531c-.094-.196-.231-.37-.4-.506-.192-.151-.407-.27-.636-.353-.25-.094-.527-.182-.833-.265-.235-.058-.442-.114-.621-.167-.155-.043-.304-.102-.446-.176-.105-.055-.197-.131-.269-.225-.064-.095-.097-.208-.092-.322 0-.223.082-.397.247-.52.164-.124.414-.186.75-.185.187 0 .373.023.555.07.173.044.342.102.507.172.137.058.27.128.396.207.08.05.155.105.225.168l.538-.988c-.303-.2-.628-.365-.97-.489-.155-.057-.314-.103-.476-.135v-.771h-1.14v.722c-.166.02-.33.055-.491.105-.264.078-.51.205-.728.374-.208.165-.376.376-.489.617-.121.266-.182.555-.176.847-.006.212.032.424.11.621.075.176.188.332.33.459.165.143.35.26.552.344.253.108.514.198.78.269.247.07.47.135.67.194.176.05.347.114.512.194.125.058.236.142.326.246.077.098.118.22.114.344 0 .43-.335.644-1.005.644-.238 0-.474-.03-.705-.088-.214-.054-.424-.126-.626-.216-.168-.075-.332-.16-.49-.256-.102-.059-.198-.128-.286-.207l-.537 1.049c.376.264.793.467 1.234.6.295.09.599.153.906.185v.695h1.14v-.724c.075-.013.15-.028.224-.046.265-.061.516-.17.74-.322.216-.148.392-.346.512-.578.127-.238.19-.524.19-.86 0-.287-.048-.53-.142-.727z" transform="translate(14)"/>
                        </g>
                    </g>
                </g>
            </g>
        </g>
    </g>
</svg>
