<svg id="phone-fill" xmlns="http://www.w3.org/2000/svg" width="22" height="22" viewBox="0 0 22 22">
  <defs>
    <style>
      .cls-1 {
        fill: none;
      }

      .cls-2 {
        fill: #fff;
      }
    </style>
  </defs>
  <path id="Path_620" data-name="Path 620" class="cls-1" d="M0,0H22V22H0Z"/>
  <path id="Path_621" data-name="Path 621" class="cls-2" d="M19.5,15.3v3.241a.917.917,0,0,1-.852.915c-.4.028-.728.042-.981.042A14.666,14.666,0,0,1,3,4.833q0-.379.042-.981A.917.917,0,0,1,3.957,3H7.2a.458.458,0,0,1,.457.413c.021.211.04.379.059.506A12.743,12.743,0,0,0,8.821,7.586a.418.418,0,0,1-.135.52L6.708,9.519a11.96,11.96,0,0,0,6.274,6.274l1.412-1.974a.424.424,0,0,1,.525-.137,12.743,12.743,0,0,0,3.667,1.1c.127.018.3.039.5.059a.458.458,0,0,1,.412.456Z" transform="translate(-0.25 -0.25)"/>
</svg>
