<?xml version="1.0" encoding="UTF-8"?>
<svg width="52px" height="52px" viewBox="0 0 52 52" version="1.1" xmlns="http://www.w3.org/2000/svg" xmlns:xlink="http://www.w3.org/1999/xlink">
    <title>5EFA903C-E3EE-4461-8D0A-CF1BECD20A9E</title>
    <defs>
        <filter id="filter-1">
            <feColorMatrix in="SourceGraphic" type="matrix" values="0 0 0 0 0.419608 0 0 0 0 0.309804 0 0 0 0 0.266667 0 0 0 1.000000 0"></feColorMatrix>
        </filter>
    </defs>
    <g id="Page-1" stroke="none" stroke-width="1" fill="none" fill-rule="evenodd">
        <g id="Landing-Page" transform="translate(-58.000000, -669.000000)">
            <g id="Products" transform="translate(58.000000, 644.000000)">
                <g id="INVEST-icon" transform="translate(0.000000, 25.000000)">
                    <circle id="Ellipse_138" fill="#F1F3F7" fill-rule="nonzero" cx="26" cy="26" r="26"></circle>
                    <g filter="url(#filter-1)" id="bankRate">
                        <g transform="translate(13.000000, 12.000000)">
                            <path d="M13.0053636,14.9564545 C9.47465744,14.9564545 6.61245455,17.8186574 6.61245455,21.3493636 C6.61245455,24.8800698 9.47465744,27.7422727 13.0053636,27.7422727 C16.5360698,27.7422727 19.3982727,24.8800698 19.3982727,21.3493636 C19.3982727,17.8186574 16.5360698,14.9564545 13.0053636,14.9564545 Z M10.7634545,18.3291818 C11.0937375,18.3291819 11.3914866,18.5281736 11.5178209,18.8333399 C11.6441552,19.1385062 11.5741861,19.4897277 11.3405497,19.7231819 C11.1069134,19.9566362 10.7556374,20.0263314 10.4505697,19.8997592 C10.145502,19.773187 9.94674257,19.4752828 9.94699974,19.145 C9.9466477,18.6945807 10.3111273,18.3289622 10.7615455,18.3279091 L10.7634545,18.3291818 Z M11.5442727,23.9654545 C11.2252271,24.2813872 10.7108595,24.2801264 10.3933666,23.9626334 C10.0758736,23.6451405 10.0746128,23.1307729 10.3905455,22.8117273 L14.4632727,18.739 C14.6690263,18.5312191 14.9702497,18.4494504 15.2528257,18.5246717 C15.5354017,18.599893 15.756107,18.8205983 15.8313283,19.1031743 C15.9065496,19.3857503 15.8247809,19.6869737 15.617,19.8927273 L11.5442727,23.9654545 Z M15.2288182,24.4280909 C14.8985931,24.4280909 14.6008842,24.2291681 14.4745125,23.92408 C14.3481409,23.6189918 14.4179933,23.2678202 14.6514976,23.0343158 C14.885002,22.8008115 15.2361737,22.7309591 15.5412618,22.8573307 C15.84635,22.9837024 16.0452727,23.2814113 16.0452727,23.6116364 C16.045104,23.8280048 15.9589902,24.0354444 15.8058752,24.1883206 C15.6527603,24.3411969 15.4451866,24.426987 15.2288182,24.4268182 L15.2288182,24.4280909 Z" id="Path_568" fill="#FFFFFF" fill-rule="nonzero"></path>
                            <polygon id="Path_569" fill="#FFFFFF" fill-rule="nonzero" points="2.41563636 9.74336364 5.79409091 9.74336364 5.79409091 16.6962727 2.41563636 16.6962727"></polygon>
                            <path d="M8.34909091,14.8170909 C9.35250802,14.0983605 10.5089679,13.6221839 11.7275455,13.426 L11.7275455,9.74336364 L8.34909091,9.74336364 L8.34909091,14.8170909 Z" id="Path_570" fill="#FFFFFF" fill-rule="nonzero"></path>
                            <path d="M14.2825455,13.4266364 C15.501123,13.6228203 16.6575829,14.0989969 17.661,14.8177273 L17.661,9.74336364 L14.2825455,9.74336364 L14.2825455,13.4266364 Z" id="Path_571" fill="#FFFFFF" fill-rule="nonzero"></path>
                            <polygon id="Path_572" fill="#FFFFFF" fill-rule="nonzero" points="20.216 9.74336364 23.5944545 9.74336364 23.5944545 16.6962727 20.216 16.6962727"></polygon>
                            <path d="M12.5681818,0.0833636364 L4.04090909,4.48254545 L21.9265455,4.48254545 L13.2821818,0.0814545455 C13.0568175,-0.0282230011 12.7935461,-0.0282230011 12.5681818,0.0814545455 L12.5681818,0.0833636364 Z" id="Path_573" fill="#FFFFFF" fill-rule="nonzero"></path>
                            <path d="M1.337,18.5996364 L1.337,20.3120909 L5.04763636,20.3120909 C5.13551907,19.6308704 5.3113481,18.9639179 5.57072727,18.3279091 L1.60872727,18.3279091 C1.45865644,18.3279091 1.337,18.4495655 1.337,18.5996364 L1.337,18.5996364 Z" id="Path_574" fill="#FFFFFF" fill-rule="nonzero"></path>
                            <path d="M20.9624545,20.3120909 L24.6730909,20.3120909 L24.6730909,18.5996364 C24.6730909,18.4495655 24.5514345,18.3279091 24.4013636,18.3279091 L20.4393636,18.3279091 C20.6987428,18.9639179 20.8745718,19.6308704 20.9624545,20.3120909 L20.9624545,20.3120909 Z" id="Path_575" fill="#FFFFFF" fill-rule="nonzero"></path>
                            <path d="M0,22.1963636 L0,23.6771818 C0,23.7494694 0.028802177,23.8187779 0.0800365244,23.8697734 C0.131270872,23.9207689 0.200713182,23.9492477 0.273,23.9489121 L5.40590909,23.9291818 C5.18739956,23.28747 5.05181592,22.6204583 5.00245455,21.9443636 L0.273,21.9246334 C0.200713182,21.9242978 0.131270872,21.9527766 0.0800365244,22.0037721 C0.028802177,22.0547676 0,22.124076 0,22.1963636 Z" id="Path_576" fill="#FFFFFF" fill-rule="nonzero"></path>
                            <path d="M21.0076364,21.9443636 C20.9583165,22.620464 20.8227318,23.2874809 20.6041818,23.9291818 L25.7370909,23.9489121 C25.8093777,23.9492477 25.87882,23.9207689 25.9300544,23.8697734 C25.9812887,23.8187779 26.0100909,23.7494694 26.0100909,23.6771818 L26.0100909,22.1963636 C26.0100909,22.124076 25.9812887,22.0547676 25.9300544,22.0037721 C25.87882,21.9527766 25.8093777,21.9242978 25.7370909,21.9246334 L21.0076364,21.9443636 Z" id="Path_577" fill="#FFFFFF" fill-rule="nonzero"></path>
                            <path d="M24.6730909,7.83936364 L24.6730909,6.12690909 L1.337,6.12690909 L1.337,7.83936364 C1.337,7.91143019 1.36562833,7.98054508 1.41658708,8.03150383 C1.46754582,8.08246258 1.53666072,8.11109166 1.60872727,8.11109166 L24.4007273,8.11109166 C24.472904,8.11125994 24.5421825,8.08270625 24.593279,8.03172917 C24.6443754,7.98075209 24.6730909,7.91154058 24.6730909,7.83936364 L24.6730909,7.83936364 Z" id="Path_578" fill="#FFFFFF" fill-rule="nonzero"></path>
                        </g>
                    </g>
                </g>
            </g>
        </g>
    </g>
</svg>