<svg xmlns="http://www.w3.org/2000/svg" width="26" height="23" viewBox="0 0 26 23">
    <defs>
        
    </defs>
    <g fill="none" fill-rule="evenodd">
        <g>
            <g>
                <g  transform="translate(-234 -217) translate(172 160) translate(50 44)">
                    <g fill="#6b4f44" fill-rule="nonzero" transform="translate(12 13)">
                        <path d="M12.658 9.789c.813 0 1.247.465 1.247.465l-.219 1.77H11.61l-.218-1.75s.455-.485 1.267-.485z"/>
                        <circle cx="12.674" cy="4.373" r="4.373"/>
                        <path d="M22.556 14.69c-.31-.822-1.233-2.376-1.873-2.97-.432-.402-1.933-1.175-3.568-1.707l-.001.004-2.898 7.535-.63-4.883H11.71l-.63 4.883-2.898-7.535-.002-.004c-1.634.532-3.135 1.305-3.567 1.707-.64.594-1.564 2.148-1.874 2.97C2.33 15.774.35 20.81 0 22.961h3.397l1.922-4.116.038 4.116h14.582l.037-4.116 1.923 4.116h3.397c-.349-2.152-2.33-7.188-2.74-8.273z"/>
                    </g>
                </g>
            </g>
        </g>
    </g>
</svg>