<svg xmlns="http://www.w3.org/2000/svg" width="22" height="22" viewBox="0 0 22 22">
    <defs>
        <filter id="5a3a42o4ba">
            <feColorMatrix in="SourceGraphic" values="0 0 0 0 1.000000 0 0 0 0 1.000000 0 0 0 0 1.000000 0 0 0 1.000000 0"/>
        </filter>
    </defs>
    <g fill="none" fill-rule="evenodd">
        <g>
            <g>
                <g>
                    <g filter="url(#5a3a42o4ba)" transform="translate(-1252 -93) translate(0 29.203) translate(946 64.797) translate(281)">
                        <g fill="#513529" fill-rule="nonzero" transform="translate(25)">
                            <path d="M11.007 8.512c.707 0 1.084.405 1.084.405l-.19 1.539h-1.806l-.19-1.521s.396-.423 1.102-.423z"/>
                            <circle cx="11.021" cy="3.802" r="3.802"/>
                            <path d="M19.614 12.773c-.27-.714-1.073-2.065-1.629-2.582-.376-.35-1.681-1.021-3.102-1.484l-.002.004-2.52 6.551-.548-4.246h-1.63l-.549 4.246-2.52-6.551v-.004c-1.422.463-2.727 1.135-3.103 1.484-.556.517-1.36 1.868-1.629 2.582-.356.944-2.079 5.323-2.382 7.194h2.954l1.671-3.58.033 3.58h12.68l.033-3.58 1.672 3.58h2.953c-.303-1.871-2.025-6.25-2.382-7.194z"/>
                        </g>
                    </g>
                </g>
            </g>
        </g>
    </g>
</svg>
