<?xml version="1.0" encoding="UTF-8"?>
<svg width="26px" height="23px" viewBox="0 0 26 23" version="1.1" xmlns="http://www.w3.org/2000/svg" xmlns:xlink="http://www.w3.org/1999/xlink">
    <title>B8C9593A-1926-4A4C-AE4C-B9D1D5E7A036</title>
    <defs>
        <filter id="filter-1">
            <feColorMatrix in="SourceGraphic" type="matrix" values="0 0 0 0 0.419608 0 0 0 0 0.309804 0 0 0 0 0.266667 0 0 0 1.000000 0"></feColorMatrix>
        </filter>
    </defs>
    <g id="Page-1" stroke="none" stroke-width="1" fill="none" fill-rule="evenodd">
        <g id="Requests-popup-&quot;Listing&quot;" transform="translate(-234.000000, -217.000000)">
            <g id="modal" transform="translate(172.000000, 160.000000)">
                <g id="request-icon" transform="translate(50.000000, 44.000000)" filter="url(#filter-1)">
                    <g transform="translate(12.000000, 13.000000)">
                        <path d="M12.6584737,9.788811 C13.471122,9.788811 13.9049306,10.2542584 13.9049306,10.2542584 L13.6863206,12.0238828 L11.6094426,12.0238828 L11.3908325,10.2748923 C11.3908325,10.2748923 11.8460455,9.788811 12.6584737,9.788811 Z" id="Path_1831" fill="#513529" fill-rule="nonzero"></path>
                        <circle id="Ellipse_133" fill="#513529" fill-rule="nonzero" cx="12.6743756" cy="4.37269617" r="4.37269617"></circle>
                        <path d="M22.5563421,14.6891866 C22.2462823,13.8680096 21.3225407,12.3138589 20.6829976,11.7196005 C20.2505646,11.3179258 18.749567,10.5452249 17.1152464,10.0134187 L17.1137057,10.0173254 L14.2160359,17.5518612 L13.5852967,12.6685981 L11.7101914,12.6685981 L11.0794522,17.5518612 L8.18183732,10.0173254 L8.18029665,10.0134187 C6.54608612,10.5451699 5.04492344,11.3181459 4.61254545,11.7196005 C3.97300239,12.3138589 3.04920574,13.8680096 2.73925598,14.6891866 C2.32949282,15.7745885 0.348466507,20.8100478 5.50239234e-05,22.9618134 L3.39657177,22.9618134 L5.31916268,18.8460239 L5.35696411,22.9618134 L19.938634,22.9618134 L19.9764354,18.8460239 L21.8990263,22.9618134 L25.2955431,22.9618134 C24.9471866,20.8100478 22.9661053,15.7743134 22.5563421,14.6891866 L22.5563421,14.6891866 Z" id="Path_1832" fill="#513529" fill-rule="nonzero"></path>
                    </g>
                </g>
            </g>
        </g>
    </g>
</svg>