<svg xmlns="http://www.w3.org/2000/svg" width="26" height="24" viewBox="0 0 26 24">
    <g fill="none" fill-rule="evenodd">
        <g fill="#513529" fill-rule="nonzero">
            <g>
                <g>
                    <g>
                        <path d="M12.593 0c-3.026 0-5.48 2.453-5.48 5.48 0 3.025 2.454 5.478 5.48 5.478 3.026 0 5.479-2.453 5.479-5.479 0-3.026-2.453-5.479-5.48-5.479zm2.155 7.557c-.113.219-.28.406-.482.546-.213.143-.45.246-.7.303-.07.017-.14.032-.211.044v.684h-1.076v-.656c-.29-.03-.577-.09-.856-.176-.416-.125-.81-.316-1.165-.566l.508-.99c.083.074.173.14.27.195.149.09.303.171.462.242.19.085.389.153.591.204.218.055.442.083.666.083.633 0 .949-.203.95-.608.002-.117-.036-.232-.11-.324-.084-.099-.19-.178-.307-.233-.155-.075-.317-.137-.483-.184l-.633-.183c-.25-.066-.497-.151-.736-.253-.19-.08-.365-.19-.52-.325-.135-.12-.242-.267-.312-.433-.074-.187-.11-.386-.105-.587-.005-.275.052-.548.167-.799.106-.227.265-.427.462-.582.205-.16.438-.28.687-.354.151-.047.307-.08.464-.099v-.681h1.076v.727c.153.03.303.074.45.128.322.117.63.272.915.462l-.508.932c-.066-.06-.137-.112-.212-.158-.12-.075-.245-.14-.375-.196-.155-.066-.315-.12-.478-.162-.172-.044-.348-.067-.525-.066-.316 0-.552.058-.707.174-.155.115-.242.3-.233.491-.005.108.026.215.087.304.068.089.155.161.254.213.134.07.275.126.42.166.17.05.365.103.587.158.288.078.55.161.787.25.216.078.418.19.599.333.16.129.29.293.379.478.094.217.14.451.133.687.008.281-.054.56-.18.811zM12.593 12.999c-3.026 0-5.48 2.453-5.48 5.479 0 3.026 2.454 5.48 5.48 5.48 3.026 0 5.479-2.454 5.479-5.48 0-3.026-2.453-5.48-5.48-5.48zm2.523 3.398c-.657-.538-1.53-.733-2.354-.526-.823.207-1.5.79-1.826 1.575h3.492l-.185.787H10.74c-.007.08-.011.162-.011.245 0 .083.004.164.01.245h3.378l-.186.787h-2.996c.325.784 1.003 1.368 1.826 1.575.824.207 1.697.012 2.354-.526v1.06c-.963.556-2.128.641-3.162.23-1.034-.411-1.822-1.273-2.14-2.34H8.9l.186-.787h.588c-.005-.08-.008-.162-.008-.244 0-.082.003-.164.008-.245h-.787v-.046l.175-.741h.752c.318-1.066 1.106-1.929 2.14-2.34 1.034-.411 2.199-.326 3.162.231v1.06zM5.451 1.062L0 3.97l1.395.869c-.043.095-.091.201-.141.32-.055.135-.118.284-.18.448-.059.164-.127.34-.19.53-.058.19-.128.39-.188.606l-.09.33c-.03.113-.063.227-.088.347-.12.508-.215 1.022-.283 1.54-.076.573-.118 1.151-.127 1.73v.453l.002.229c0 .076.008.153.013.23l.03.462c.012.155.018.31.043.465l.064.466.032.233c.009.078.022.156.039.233l.194.923.007.035.002.007.004.013.008.027.016.053.03.107.063.214.125.427.032.107.04.113.082.225.162.445c.05.15.116.287.177.426l.185.412c.03.068.059.137.093.203l.103.196.204.387c.266.485.56.954.88 1.405.286.4.591.785.915 1.155.072.087.15.167.224.247l.217.232c.142.15.286.283.415.412.133.127.263.24.38.347.118.105.232.197.331.281l.275.217.208.154c.115.081.178.123.178.123l.054-.071s-.055-.05-.154-.145l-.178-.181-.234-.253c-.084-.098-.18-.204-.278-.323-.097-.121-.205-.249-.313-.391-.106-.145-.223-.293-.336-.459l-.173-.254c-.059-.086-.12-.174-.176-.268-.25-.396-.481-.805-.69-1.224-.232-.464-.436-.94-.612-1.428l-.13-.384-.067-.193c-.02-.064-.036-.132-.055-.198l-.108-.4c-.04-.131-.072-.265-.098-.4l-.078-.4-.04-.2-.02-.099c-.006-.034-.01-.072-.015-.109l-.057-.44-.028-.222-.014-.11-.008-.056-.003-.027-.002-.014v-.007l.004.02-.043-.835c-.004-.07-.005-.139-.002-.208l.005-.207.008-.41c-.001-.137.015-.272.027-.407l.036-.4c.006-.066.01-.132.019-.197l.03-.195.06-.385c.085-.485.197-.965.337-1.438.124-.42.27-.832.437-1.237.035-.095.077-.185.117-.273l.115-.258c.076-.167.16-.319.23-.465.074-.144.15-.274.217-.397.07-.12.136-.226.194-.325l.05-.076 1.335.831.207-6.174zM19.734 23.116l5.452-2.908-1.395-.868.141-.32c.055-.136.118-.285.18-.448.059-.164.127-.34.19-.53.058-.191.128-.392.188-.606l.09-.33c.03-.114.063-.228.087-.348.12-.508.216-1.022.284-1.54.076-.573.118-1.15.127-1.73v-.453l-.002-.229c-.001-.076-.009-.153-.013-.23l-.03-.462c-.012-.155-.018-.31-.044-.465l-.063-.466-.032-.233c-.009-.078-.022-.156-.039-.233l-.194-.923c-.011-.058-.005-.02-.008-.035l-.001-.006-.004-.014-.008-.026-.016-.054-.031-.107-.062-.214-.125-.427-.032-.107-.041-.113-.081-.225-.162-.445c-.05-.15-.116-.287-.177-.426l-.185-.412c-.03-.068-.059-.137-.093-.203l-.103-.196-.204-.387c-.266-.485-.56-.954-.88-1.405-.286-.4-.591-.785-.915-1.154-.072-.088-.15-.168-.224-.248l-.217-.231c-.142-.15-.286-.284-.415-.413-.133-.127-.263-.24-.38-.347-.118-.104-.232-.196-.331-.281L19.69 2.1l-.208-.154c-.115-.081-.178-.122-.178-.122l-.054.07.154.145.178.182.234.252c.084.098.18.204.278.323.097.122.205.249.313.391.106.145.223.293.336.459l.173.254c.059.087.12.174.176.268.25.396.48.805.69 1.224.231.464.436.941.612 1.429l.13.383.067.193c.02.065.036.132.055.198l.108.4c.036.133.076.267.098.4l.078.4.04.2.02.1c.006.033.01.072.015.108l.057.441.028.221.014.11.007.056.004.028.002.014v.006l-.004-.02.043.836c.004.069.005.138.002.207l-.005.207-.008.411c.001.136-.015.272-.027.406l-.036.4c-.007.066-.01.132-.02.197l-.03.195-.06.385c-.084.485-.196.965-.336 1.438-.125.42-.27.833-.437 1.238-.035.094-.077.184-.117.272l-.116.258c-.075.167-.158.32-.23.465-.073.145-.15.275-.216.397-.07.12-.137.227-.195.325l-.05.077-1.334-.832-.208 6.174z" transform="translate(-234 -217) translate(172 160) translate(50 44) translate(12 13)"/>
                    </g>
                </g>
            </g>
        </g>
    </g>
</svg>
