<svg xmlns="http://www.w3.org/2000/svg" width="22" height="22" viewBox="0 0 22 22">
    <defs>
        <filter id="98dfy2uw1a">
            <feColorMatrix in="SourceGraphic" values="0 0 0 0 1.000000 0 0 0 0 1.000000 0 0 0 0 1.000000 0 0 0 1.000000 0"/>
        </filter>
    </defs>
    <g fill="none" fill-rule="evenodd">
        <g>
            <g>
                <g>
                    <g filter="url(#98dfy2uw1a)" transform="translate(-1074 -95) translate(0 29.203) translate(946 64.797) translate(88 2)">
                        <g>
                            <path fill="#513529" fill-rule="nonzero" d="M10.494 0C7.972 0 5.928 2.044 5.928 4.566s2.044 4.566 4.566 4.566 4.566-2.044 4.566-4.566S13.016 0 10.494 0zm1.796 6.298c-.094.182-.233.338-.402.454-.177.12-.374.205-.583.253-.058.014-.117.027-.176.037v.57h-.897v-.547c-.241-.026-.48-.075-.713-.146-.346-.105-.674-.264-.97-.472l.422-.825c.07.062.145.116.226.163.124.075.252.142.385.2.159.072.324.128.492.17.182.047.368.07.555.07.527 0 .791-.169.791-.506.003-.098-.03-.194-.09-.27-.071-.083-.158-.15-.257-.195-.13-.063-.264-.114-.402-.153l-.527-.152c-.21-.056-.415-.127-.614-.212-.158-.066-.304-.158-.434-.27-.112-.1-.2-.223-.26-.361-.061-.156-.09-.322-.086-.49-.005-.229.043-.456.138-.665.089-.19.22-.356.385-.486.171-.133.365-.233.572-.294.127-.04.256-.067.388-.082V1.52h.896v.606c.127.025.253.061.374.106.27.097.525.227.763.385l-.423.777c-.054-.05-.114-.093-.177-.132-.099-.062-.203-.117-.312-.163-.129-.055-.262-.1-.399-.135-.142-.037-.29-.055-.437-.055-.263 0-.46.048-.59.145-.128.096-.2.25-.193.41-.004.09.022.178.073.253.056.074.128.134.211.177.112.058.229.105.35.138.141.042.304.086.49.132.24.065.458.134.655.208.18.065.349.159.5.278.133.107.24.244.315.398.079.18.117.376.11.573.007.234-.044.466-.149.676zM10.494 10.832c-2.522 0-4.566 2.045-4.566 4.566 0 2.522 2.044 4.566 4.566 4.566s4.566-2.044 4.566-4.566c0-2.521-2.044-4.566-4.566-4.566zm2.103 2.832c-.548-.448-1.275-.61-1.962-.438-.686.172-1.25.659-1.522 1.312h2.91l-.154.656H8.95c-.006.068-.01.136-.01.204 0 .07.004.137.01.204h2.814l-.155.656H9.113c.271.654.836 1.14 1.522 1.313.687.172 1.414.01 1.962-.438V18.015c-.803.464-1.774.535-2.635.193-.862-.343-1.519-1.061-1.783-1.95h-.762l.154-.656h.491c-.004-.068-.007-.136-.007-.204 0-.068.003-.136.007-.204h-.656v-.038l.145-.618h.628c.264-.888.921-1.607 1.783-1.95.861-.342 1.832-.271 2.635.193v.883zM4.543.885L0 3.308l1.163.724c-.036.08-.076.168-.118.267-.046.113-.099.237-.15.373-.049.137-.106.283-.158.442-.05.159-.107.326-.157.505l-.075.275c-.025.094-.052.19-.073.29-.1.423-.18.85-.237 1.282-.062.478-.098.96-.105 1.442v.378l.001.19c.001.064.008.128.011.192l.026.386c.01.129.015.258.036.387l.052.388.027.195c.008.065.018.13.033.193l.162.77.006.029.001.005.004.011.006.023.013.044.026.09.052.178.104.355c.01.03.016.059.027.09l.034.094.067.188.135.37c.042.125.097.24.148.355l.154.344c.026.056.05.113.077.169l.086.163.17.323c.222.404.467.795.734 1.17.238.334.492.655.762.963.06.073.125.14.187.205l.18.194c.119.125.239.236.347.344.11.105.218.2.316.288.099.088.193.164.276.235l.23.18.173.129c.095.067.148.102.148.102l.044-.06s-.045-.04-.127-.12l-.15-.15-.194-.211c-.07-.082-.15-.17-.232-.27-.08-.1-.17-.207-.26-.326-.088-.12-.186-.244-.28-.382l-.144-.211c-.05-.072-.1-.145-.147-.224-.209-.33-.401-.67-.576-1.02-.192-.386-.362-.784-.509-1.19l-.11-.32-.054-.16c-.018-.054-.03-.11-.046-.166l-.09-.332c-.033-.11-.06-.222-.082-.334l-.065-.333-.033-.167-.017-.083c-.005-.028-.008-.06-.012-.09l-.048-.368-.023-.184-.012-.092-.006-.047-.003-.023-.002-.011v-.006l.003.018-.035-.697c-.004-.058-.004-.115-.002-.173l.004-.173.007-.342c-.001-.113.013-.226.022-.338l.03-.334c.006-.055.009-.11.016-.164l.026-.163.05-.32c.07-.405.164-.805.28-1.198.104-.35.225-.694.364-1.032.03-.079.064-.153.098-.227l.096-.215c.063-.139.132-.266.192-.387.061-.12.125-.229.18-.331.058-.1.114-.189.162-.27l.042-.065 1.112.693.173-5.145zM16.445 19.263l4.543-2.423-1.162-.724c.035-.08.076-.168.118-.266.045-.113.098-.237.15-.374.048-.136.105-.283.157-.441.05-.16.108-.326.157-.505l.075-.276c.025-.094.053-.19.073-.289.1-.423.18-.851.237-1.283.063-.478.098-.96.105-1.442v-.378l-.001-.19c-.001-.064-.008-.128-.011-.192l-.026-.385c-.009-.13-.015-.258-.035-.388l-.053-.388-.027-.194c-.007-.065-.018-.13-.033-.194l-.161-.77-.006-.028-.002-.006-.003-.011-.007-.022-.013-.045-.026-.089-.052-.178-.104-.356c-.009-.03-.016-.059-.027-.09l-.033-.094-.068-.187-.135-.37c-.042-.126-.097-.24-.148-.356-.05-.116-.103-.23-.153-.343-.026-.057-.05-.114-.078-.17l-.086-.163-.17-.322c-.222-.404-.467-.795-.734-1.17-.238-.334-.492-.655-.762-.963-.06-.073-.125-.14-.186-.206l-.181-.193c-.118-.125-.238-.236-.346-.344-.11-.106-.22-.2-.316-.289-.1-.087-.194-.164-.277-.235l-.229-.18-.173-.129c-.096-.067-.149-.102-.149-.102l-.044.06s.045.04.128.12l.148.151.195.21c.07.082.15.17.232.27.08.101.17.207.26.326.089.12.187.244.28.382l.145.212c.049.072.1.145.146.223.21.33.401.67.576 1.02.192.387.362.784.51 1.19l.108.32.055.161c.018.054.03.11.046.165l.09.333c.03.111.064.223.082.334l.065.333.033.166.017.083c.005.029.008.06.012.09l.048.368.023.185.012.092.006.046.003.023.002.012V8.4l-.003-.017.035.697c.004.057.005.115.002.173l-.004.172-.007.343c.001.113-.012.226-.022.338l-.03.333c-.006.055-.008.11-.016.165l-.026.162-.05.32c-.07.405-.163.805-.28 1.199-.104.35-.225.694-.364 1.031-.029.08-.064.154-.097.227l-.097.215c-.063.14-.132.266-.191.388-.062.12-.126.229-.181.33-.058.101-.114.19-.162.271l-.041.064-1.113-.693-.173 5.145z" transform="translate(40)"/>
                        </g>
                    </g>
                </g>
            </g>
        </g>
    </g>
</svg>
