<svg xmlns="http://www.w3.org/2000/svg" width="26" height="28" viewBox="0 0 26 28">
    <g fill="none" fill-rule="evenodd">
        <g>
            <g>
                <g>
                    <path fill="#FFF" fill-rule="nonzero" d="M16.691 9.255c0 2.34-1.877 5.156-4.191 5.156s-4.191-2.817-4.191-5.156c0-1.512.799-2.91 2.095-3.666 1.297-.756 2.895-.756 4.192 0 1.296.756 2.095 2.154 2.095 3.666zM20.456 21.502c0 .315-4.167 3.149-7.956 3.149-3.72 0-7.956-2.621-7.956-3.149 0-3.45 4.54-6.247 7.956-6.247 3.417 0 7.956 2.797 7.956 6.247z" transform="translate(-1354 -55) translate(0 29.203) translate(1354 26.797)"/>
                    <path fill="#FFF" fill-rule="nonzero" d="M12.738 25.241c-5.946.004-11.07-4.186-12.251-10.015C-.693 9.396 2.397 3.54 7.876 1.23c6.357-2.686 13.687.291 16.373 6.65 2.685 6.36-.292 13.693-6.649 16.38-1.538.651-3.192.985-4.862.981zm0-23.901c-6.297 0-11.4 5.106-11.4 11.405 0 6.298 5.103 11.404 11.4 11.404 6.296 0 11.4-5.106 11.4-11.404-.006-6.296-5.106-11.398-11.4-11.405z" transform="translate(-1354 -55) translate(0 29.203) translate(1354 26.797)"/>
                    <path d="M0.245 0.248H24.755000000000003V25H0.245z" transform="translate(-1354 -55) translate(0 29.203) translate(1354 26.797)"/>
                </g>
            </g>
        </g>
    </g>
</svg>
